<svg width="92" height="92" viewBox="0 0 92 92" fill="none" xmlns="http://www.w3.org/2000/svg">
<g clip-path="url(#clip0_1_86)">
<path d="M47.129 14.5252C44.4317 14.5252 42.2373 12.3308 42.2373 9.63448C42.2373 6.93719 44.4317 4.7428 47.129 4.7428C49.8252 4.7428 52.0196 6.93719 52.0196 9.63448C52.0196 12.3308 49.8252 14.5252 47.129 14.5252Z" fill="#D4AF37"/>
<path d="M30.8412 9.15077C28.458 9.15077 26.5191 7.21187 26.5191 4.82863C26.5191 2.4454 28.458 0.505493 30.8412 0.505493C33.2244 0.505493 35.1643 2.44439 35.1643 4.82863C35.1643 7.21288 33.2244 9.15077 30.8412 9.15077Z" fill="#D4AF37"/>
<path d="M85.7484 52.7801C83.9509 52.7801 82.4382 51.3713 82.3311 49.5556C82.322 49.4142 82.323 49.2729 82.3331 49.1315C81.7565 48.7548 81.2779 48.2459 80.9365 47.646C80.9153 47.647 80.8941 47.649 80.8729 47.65C78.2826 47.8046 75.9176 46.4736 74.6684 44.2852C74.5018 44.3166 74.3362 44.3368 74.1696 44.3468C72.6457 44.4307 71.241 43.7329 70.3867 42.5342C70.0948 42.6352 69.7899 42.6958 69.4778 42.7139C67.954 42.7947 66.5594 41.8677 66.0534 40.4438C65.9464 40.1408 65.8808 39.8217 65.8626 39.4966C65.8091 38.5827 66.114 37.7041 66.723 37.0204C67.3319 36.3368 68.1691 35.9318 69.082 35.8783C69.8838 35.8339 70.6614 36.0671 71.2895 36.5286C71.9731 36.0055 72.7982 35.6915 73.6646 35.641C74.4402 35.5976 75.1935 35.7591 75.8742 36.1055C76.1398 35.8531 76.4256 35.6218 76.7295 35.4148C77.7242 34.7362 78.8896 34.3403 80.0963 34.2696C83.7782 34.0626 86.9623 36.8821 87.1763 40.571C87.2016 41.0043 87.1844 41.4375 87.1248 41.8677C88.2619 42.616 88.987 43.846 89.0688 45.2375C89.1132 46.005 88.9476 46.7685 88.5972 47.4531C88.9345 47.955 89.1324 48.5387 89.1678 49.1577C89.2182 50.004 88.9527 50.8341 88.4235 51.4955C87.8176 52.2509 86.9158 52.7174 85.9504 52.774C85.8817 52.778 85.8151 52.7801 85.7484 52.7801Z" fill="#D4AF37"/>
<path d="M82.1413 27.2573C79.758 27.2573 77.8191 25.3184 77.8191 22.9341C77.8191 20.5499 79.758 18.611 82.1413 18.611C84.5245 18.611 86.4634 20.5499 86.4634 22.9341C86.4634 25.3184 84.5245 27.2573 82.1413 27.2573Z" fill="#D4AF37"/>
<path d="M68.2115 16.5368C64.983 16.5368 62.3554 13.9091 62.3554 10.6807C62.3554 7.4522 64.983 4.82458 68.2115 4.82458C71.441 4.82458 74.0686 7.4522 74.0686 10.6807C74.0686 13.9091 71.441 16.5368 68.2115 16.5368Z" fill="#D4AF37"/>
<path d="M2.56255 71.548V87.4672C2.56255 89.0769 3.86726 90.3816 5.47695 90.3816H18.3272C19.9369 90.3816 21.2406 89.0769 21.2406 87.4682V71.548H2.56255Z" fill="#D4AF37"/>
<path d="M70.6563 71.548V87.4672C70.6563 89.0769 71.961 90.3806 73.5697 90.3806H86.42C88.0297 90.3806 89.3334 89.0759 89.3334 87.4672V71.548H70.6563Z" fill="#D4AF37"/>
<path d="M18.3272 91.3914H5.47695C3.31286 91.3914 1.55371 89.6313 1.55371 87.4672V74.4543C1.55371 73.8959 2.00612 73.4445 2.56355 73.4445C3.12099 73.4445 3.5734 73.8959 3.5734 74.4543V87.4672C3.5734 88.5174 4.42773 89.3717 5.47695 89.3717H18.3272C19.3775 89.3717 20.2308 88.5174 20.2308 87.4672V80.6911C20.2308 80.1327 20.6832 79.6813 21.2406 79.6813C21.798 79.6813 22.2505 80.1327 22.2505 80.6911V87.4672C22.2505 89.6313 20.4913 91.3914 18.3272 91.3914Z" fill="#D4AF37"/>
<path d="M86.421 91.3914H73.5697C71.4066 91.3914 69.6465 89.6313 69.6465 87.4672V80.9638C69.6465 80.4053 70.0979 79.9539 70.6563 79.9539C71.2147 79.9539 71.6661 80.4053 71.6661 80.9638V87.4672C71.6661 88.5174 72.5205 89.3717 73.5697 89.3717H86.421C87.4712 89.3717 88.3255 88.5174 88.3255 87.4672V74.4442C88.3255 73.8858 88.7769 73.4344 89.3354 73.4344C89.8938 73.4344 90.3452 73.8858 90.3452 74.4442V87.4682C90.3452 89.6313 88.5851 91.3914 86.421 91.3914Z" fill="#D4AF37"/>
<path d="M14.5282 40.1691C12.0258 40.1691 9.98995 38.1333 9.98995 35.6309C9.98995 34.714 10.2606 33.8404 10.7635 33.0972C10.1404 32.1429 9.80414 31.0351 9.80414 29.9021C9.80414 27.9147 10.7837 26.1121 12.4085 25.0225C12.25 24.3348 12.1692 23.635 12.1692 22.9321C12.1692 17.788 16.354 13.6032 21.4981 13.6032C23.8187 13.6032 26.0566 14.4807 27.7672 16.0369C29.8071 14.6878 32.6387 14.7948 34.5726 16.2843C35.4047 15.4764 36.5135 15.017 37.7071 15.017C40.2095 15.017 42.2454 17.0528 42.2454 19.5552C42.2454 22.0576 40.2095 24.0934 37.7071 24.0934C37.1729 24.0934 36.6488 23.9985 36.153 23.8157C34.9765 25.9687 32.5408 27.2583 29.9939 26.7786C28.4974 30.0939 25.1931 32.2621 21.4981 32.2621C21.3709 32.2621 21.2426 32.259 21.1103 32.252C20.661 33.2891 19.9238 34.1727 18.9866 34.8008C19.0392 35.0755 19.0654 35.3532 19.0654 35.6319C19.0664 38.1343 17.0306 40.1691 14.5282 40.1691Z" fill="#D4AF37"/>
<path d="M72.3528 26.5221L74.8148 32.674C74.9724 32.6942 75.1319 32.7054 75.2885 32.7346C75.7883 32.4176 76.3235 32.1651 76.8709 31.9449L74.3301 25.5971C73.3354 23.1128 71.0905 21.3789 68.47 21.0689C60.772 20.158 53.0164 19.7258 45.2628 19.7541C45.2466 20.36 45.1578 20.9467 45.0053 21.5092C52.5044 21.4708 60.0035 21.8829 67.5026 22.7695C69.6838 23.027 71.5379 24.4842 72.3528 26.5221Z" fill="#D4AF37"/>
<path d="M86.1251 55.7985C85.9999 55.8056 85.8736 55.8096 85.7484 55.8096C82.6442 55.8096 80.0216 53.6001 79.4228 50.6341C76.9668 50.3716 74.733 49.1981 73.1324 47.34C71.7096 47.1886 70.3786 46.6342 69.2839 45.7465C66.5695 45.7354 64.1054 44.0136 63.1976 41.4567C63.0168 40.9457 62.9128 40.4155 62.8633 39.8783C48.7649 39.4845 34.6665 39.5834 20.5681 40.1772C19.1856 42.0091 16.9932 43.1977 14.5262 43.1977C12.864 43.1977 11.331 42.6523 10.0808 41.7405L7.04827 44.8902C2.55446 49.5576 0.181329 55.9439 0.538814 62.414L1.06999 72.0277C1.36992 77.4515 5.85968 81.7 11.2916 81.7H80.6012C86.0332 81.7 90.523 77.4515 90.8219 72.0287L91.3531 62.414C91.5126 59.5319 91.1279 56.667 90.2564 53.9626C89.1516 55.0462 87.6853 55.7076 86.1251 55.7985ZM32.362 61.1941H59.5359C60.3721 61.1941 61.0507 61.8727 61.0507 62.7088C61.0507 63.545 60.3721 64.2236 59.5359 64.2236H32.362C31.5249 64.2236 30.8473 63.545 30.8473 62.7088C30.8473 61.8727 31.5259 61.1941 32.362 61.1941ZM20.7115 62.8896C18.6857 66.8442 14.4686 68.7316 11.2926 67.1047C8.11668 65.4778 7.18359 60.9527 9.20933 56.9982C11.2351 53.0436 15.4522 51.1562 18.6281 52.7831C21.8051 54.41 22.7372 58.9351 20.7115 62.8896ZM66.0989 71.2925H25.798C24.9609 71.2925 24.2833 70.6139 24.2833 69.7778C24.2833 68.9416 24.9609 68.263 25.798 68.263H66.0989C66.935 68.263 67.6136 68.9416 67.6136 69.7778C67.6136 70.6139 66.935 71.2925 66.0989 71.2925ZM80.6043 67.1047C77.4283 68.7316 73.2112 66.8442 71.1855 62.8896C69.1597 58.9351 70.0918 54.41 73.2688 52.7831C76.4447 51.1562 80.6618 53.0436 82.6876 56.9982C84.7133 60.9527 83.7812 65.4778 80.6043 67.1047Z" fill="#D4AF37"/>
</g>
<defs>
<clipPath id="clip0_1_86">
<rect width="92" height="92" fill="white"/>
</clipPath>
</defs>
</svg>
