<svg width="42" height="42" viewBox="0 0 42 42" fill="none" xmlns="http://www.w3.org/2000/svg">
<g clip-path="url(#clip0_11_18)">
<path d="M28.875 0.123035C28.0629 0.254286 27.0047 0.574207 26.2582 0.910536C25.643 1.18944 24.2484 2.09999 23.9613 2.41171C23.7809 2.60038 23.7727 2.6414 23.8793 2.73983C23.9449 2.79725 24.2074 3.03514 24.4617 3.27304L24.9293 3.7078L25.4789 3.28124C26.9637 2.141 28.9078 1.55858 30.8766 1.66522C34.4695 1.8621 37.4391 4.31483 38.407 7.88319C38.6777 8.87577 38.6777 10.7871 38.407 11.8535C38.1691 12.7805 37.5621 14.0683 37.0043 14.7984L36.5777 15.3644L37.1273 15.9223C37.7754 16.5703 37.7016 16.5867 38.407 15.6351C39.1945 14.5769 39.777 13.248 40.0969 11.7797C40.2691 10.9512 40.2855 8.91679 40.1215 8.08007C39.334 4.10155 36.3398 1.04999 32.3859 0.196863C31.541 0.0163956 29.7363 -0.0246201 28.875 0.123035Z" fill="#D4AF37"/>
<path d="M17.1609 1.11563C14.7246 1.76367 11.6484 3.9457 7.94883 7.62891C5.74219 9.81914 3.97852 11.8207 2.50195 13.7813C0.623438 16.2668 0.451172 17.973 1.82109 20.5324C2.48555 21.7547 3.23203 22.7555 4.22461 23.748C6.48867 26.0121 9.1793 27.2918 11.066 26.9965C12.2227 26.816 13.1332 26.3156 14.9953 24.8309C20.1797 20.6883 24.634 15.7582 26.2582 12.3539C27.3656 10.016 27.2016 8.48203 25.5937 6.09492C24.0844 3.84727 21.6891 1.90313 19.5727 1.18946C18.859 0.951563 17.8746 0.918751 17.1609 1.11563ZM21.9598 5.15156C22.4191 5.38945 22.7801 5.83242 22.9359 6.35742C23.3215 7.71094 22.2223 8.99883 20.8195 8.83477C19.2199 8.6461 18.5391 6.64453 19.6875 5.5207C20.3109 4.91367 21.2051 4.77422 21.9598 5.15156ZM15.6434 8.28516C16.4309 8.56406 17.2266 9.09727 18.0141 9.87656C19.6301 11.4926 20.1305 12.8625 19.6137 14.1996C19.4578 14.6098 18.7113 15.9305 18.5555 16.0945C18.5227 16.1273 16.9805 14.6508 15.143 12.8051L11.7879 9.45L12.3047 9.11367C13.7238 8.19492 14.7 7.94883 15.6434 8.28516ZM16.9805 17.9895C16.9805 18.0961 14.9953 20.0977 14.8969 20.0977C14.8477 20.0977 13.2316 18.5227 11.3039 16.5949L7.79297 13.084L8.87578 12.0012L9.9668 10.9102L13.4695 14.4129C15.4055 16.3488 16.9805 17.9566 16.9805 17.9895ZM13.043 21.6727C13.043 21.7055 12.7723 21.9352 12.4441 22.1813C11.0004 23.2723 9.95039 23.3215 8.35898 22.3699C7.17773 21.6727 6.25078 20.7457 5.56992 19.5809C5.05312 18.7113 4.90547 18.1945 4.94648 17.4727C4.9793 16.759 5.18437 16.2996 5.84883 15.4137L6.27539 14.8477L9.65508 18.2273C11.5172 20.0895 13.043 21.6398 13.043 21.6727Z" fill="#D4AF37"/>
<path d="M30.6797 13.0676C30.4336 13.125 30.0891 13.2563 29.9168 13.3629C29.7117 13.4859 28.5961 14.8313 26.5699 17.407C24.8965 19.5234 23.4199 21.4266 23.2887 21.6398C22.9113 22.2469 22.7555 23.0262 22.8621 23.7645C23.0344 24.9785 23.182 25.1672 26.0367 28.0301C28.4484 30.45 28.6207 30.6059 29.2195 30.8848C30.368 31.4344 31.7133 31.3441 32.6566 30.6715C33.4441 30.0973 40.0148 24.8965 40.343 24.5766C41.0156 23.9367 41.2289 23.0836 40.9828 22.0336C40.7121 20.8852 40.5891 20.7375 37.2012 17.3168C35.3555 15.4547 33.8543 14.0109 33.5098 13.7731C32.6402 13.1496 31.5492 12.8789 30.6797 13.0676ZM32.0496 16.8984C32.3121 16.9969 36.9469 21.5824 37.1273 21.9188C37.275 22.2059 37.275 22.8293 37.1191 23.1328C36.9551 23.4527 36.5285 23.7645 36.1676 23.8301C35.4949 23.9531 35.4047 23.8875 32.7961 21.2707C30.1711 18.6293 30.1055 18.5473 30.2613 17.8746C30.4418 17.0871 31.2949 16.6195 32.0496 16.8984Z" fill="#D4AF37"/>
<path d="M24.4945 16.7836C24.232 17.1199 24.027 17.407 24.0434 17.4234C24.0598 17.4316 24.2484 17.5875 24.4699 17.7597C24.6832 17.932 24.8719 18.055 24.8883 18.0386C24.8965 18.0222 25.118 17.7433 25.3723 17.4234C25.6266 17.1035 25.8398 16.8164 25.8398 16.7918C25.8398 16.7343 25.1016 16.1601 25.0277 16.1601C25.0031 16.1683 24.7652 16.4472 24.4945 16.7836Z" fill="#D4AF37"/>
<path d="M22.05 26.9637L21.2543 27.7676L21.3281 28.3828L21.4102 28.998L20.1633 30.2449L18.9246 31.4918L18.777 32.5254C18.7031 33.0996 18.6129 33.5836 18.5883 33.6082C18.5637 33.6328 18.1125 33.7066 17.5793 33.7805C17.0461 33.8461 16.5703 33.9363 16.5211 33.9691C16.4719 34.0101 16.3898 34.4203 16.3324 34.8797C16.1684 36.225 16.2914 36.0937 15.2168 36.0937C14.3965 36.0937 14.2816 36.1101 14.2406 36.2332C14.2242 36.3152 14.1012 36.8402 13.9781 37.4062C13.8551 37.9723 13.7238 38.4644 13.691 38.5055C13.6582 38.5465 13.2809 38.6367 12.8625 38.7105L12.0996 38.8418L12.1324 40.3594C12.1488 41.1961 12.1652 41.8851 12.1816 41.9016C12.1898 41.9098 12.8789 41.9426 13.7156 41.9754L15.2332 42.0246L15.3316 41.4586C15.5367 40.2445 15.4137 40.4004 16.3078 40.1953C16.7508 40.0969 17.2922 39.9738 17.5137 39.9164L17.9238 39.818L17.9484 38.8664L17.973 37.9148L18.2766 37.8738C18.4406 37.8492 18.9328 37.7836 19.3676 37.7262L20.1551 37.6277L20.2535 36.8402C20.3109 36.4055 20.3766 35.9215 20.4012 35.7574L20.4422 35.4539L21.5332 35.3144L22.6242 35.175L23.8629 33.9281L25.1098 32.6812L25.7332 32.7551L26.3566 32.8289L27.1441 32.0414L27.9316 31.2539L25.4297 28.7273C24.0516 27.3328 22.9113 26.1844 22.8867 26.1844C22.8621 26.1762 22.4848 26.5289 22.05 26.9637Z" fill="#D4AF37"/>
</g>
<defs>
<clipPath id="clip0_11_18">
<rect width="42" height="42" fill="white"/>
</clipPath>
</defs>
</svg>
