<svg width="92" height="92" viewBox="0 0 92 92" fill="none" xmlns="http://www.w3.org/2000/svg">
<path d="M66.125 11.5L61.9716 26.2392L53.6667 30.5766L61.9716 34.9121L66.125 47.9167L70.2784 34.9102L78.5833 30.5747L70.2784 26.2411L66.125 11.5ZM38.3333 23L36.4167 30.6667L30.6667 32.5833L36.4167 34.5L38.3333 42.1667L40.25 34.5L46 32.5833L40.25 30.6667L38.3333 23ZM11.5 57.5C11.5 56.9917 11.7019 56.5042 12.0614 56.1447C12.4208 55.7853 12.9083 55.5833 13.4167 55.5833H19.1667C19.675 55.5833 20.1625 55.7853 20.522 56.1447C20.8814 56.5042 21.0833 56.9917 21.0833 57.5V78.5757C21.0833 79.084 20.8814 79.5715 20.522 79.9309C20.1625 80.2904 19.675 80.4923 19.1667 80.4923H13.4167C12.9083 80.4923 12.4208 80.2904 12.0614 79.9309C11.7019 79.5715 11.5 79.084 11.5 78.5757V57.5ZM33.9346 55.9456C35.7209 55.131 40.0871 55.9456 40.0871 55.9456L52.7869 58.7937C52.7869 58.7937 55.9628 59.8115 58.9394 59.8115C61.916 59.8115 60.1354 63.8863 58.144 65.3085C56.1526 66.7307 54.7055 66.654 54.7055 66.654L44.4513 66.5294C44.4513 66.5294 53.383 68.1586 56.7563 68.3617C58.4641 68.4652 61.3947 67.2616 64.6722 65.918C67.8634 64.607 71.3805 63.1637 74.4165 62.6616C80.569 61.6457 81.5618 67.1408 79.5762 69.1763C77.5924 71.2118 61.7167 78.9456 58.9394 79.9633C56.7621 80.7607 54.1305 80.4962 51.1616 80.1972C50.3393 80.1147 49.4902 80.0285 48.6201 79.9633C45.1509 79.7007 42.5021 78.8574 39.8801 78.0237C37.0664 77.1305 34.2853 76.2469 30.5612 76.0955C29.3116 76.0457 26.3867 76.2009 24.9167 76.2872V59.3017C27.4582 58.397 32.6044 56.5512 33.9346 55.9456Z" fill="#D4AF37"/>
</svg>
