<svg width="114" height="92" viewBox="0 0 114 92" fill="none" xmlns="http://www.w3.org/2000/svg">
<g clip-path="url(#clip0_13_81)">
<path d="M11.7241 35.3846L46.1688 72.1514L29.5823 35.3846H11.7241ZM56.6183 78.0673L75.914 35.3846H37.3227L56.6183 78.0673ZM29.7481 28.3077L41.027 7.07692H26.5414L10.6183 28.3077H29.7481ZM67.0679 72.1514L101.513 35.3846H83.6544L67.0679 72.1514ZM37.765 28.3077H75.4717L64.1929 7.07692H49.0438L37.765 28.3077ZM83.4885 28.3077H102.618L86.6953 7.07692H72.2097L83.4885 28.3077ZM91.2842 1.4375L112.515 29.7452C113.031 30.4087 113.271 31.1735 113.234 32.0397C113.197 32.9058 112.884 33.6522 112.294 34.2788L59.2169 90.8942C58.5534 91.6314 57.6872 92 56.6183 92C55.5494 92 54.6832 91.6314 54.0198 90.8942L0.942857 34.2788C0.353114 33.6522 0.0398125 32.9058 0.00295348 32.0397C-0.0339055 31.1735 0.205678 30.4087 0.721704 29.7452L21.9525 1.4375C22.6159 0.479167 23.5558 0 24.7722 0H88.4645C89.6808 0 90.6207 0.479167 91.2842 1.4375Z" fill="#D4AF37"/>
</g>
<defs>
<clipPath id="clip0_13_81">
<rect width="113.237" height="92" fill="white"/>
</clipPath>
</defs>
</svg>
