<svg width="92" height="92" viewBox="0 0 92 92" fill="none" xmlns="http://www.w3.org/2000/svg">
<path d="M53.475 49.9154L48.9365 46.747C48.655 43.493 45.9267 40.9359 42.5996 40.9359C40.2019 40.9359 38.1103 42.2814 37.0334 44.2637H29.0451C28.9349 44.2637 28.8247 44.3002 28.7271 44.3613L20.7991 49.9154C20.6033 50.0502 20.5057 50.2944 20.5787 50.5148L21.8513 55.078C19.796 56.6685 18.4505 59.1637 18.4505 61.9776C18.4505 66.4797 21.8638 70.1865 26.2184 70.6511L27.8089 76.3154C27.87 76.5604 28.1023 76.7317 28.3473 76.7317H42.5013C43.4067 77.1479 44.4218 77.3802 45.4738 77.3802C49.474 77.3802 52.7161 74.1381 52.7161 70.15C52.7161 68.4738 52.1286 66.9204 51.1748 65.6971L50.5873 61.6232L53.6946 50.5394C53.7564 50.2944 53.6582 50.0502 53.475 49.9154ZM42.5991 44.5207C44.1285 44.5207 45.3884 45.7806 45.3884 47.3099C45.3884 48.8394 44.1285 50.0867 42.5991 50.0867C41.0823 50.0867 39.8342 48.8387 39.8342 47.3099C39.8342 45.7805 41.0703 44.5207 42.5991 44.5207ZM42.5991 53.6714C43.5165 53.6714 44.3854 53.4756 45.1807 53.1211L46.5999 62.9933C46.2328 62.9196 45.8657 62.8958 45.4747 62.8958C41.78 62.8958 38.7217 65.7217 38.3181 69.3182L33.8653 67.4952C35.1007 65.9903 35.8349 64.07 35.8349 61.9776C35.8349 58.7727 34.0977 55.9706 31.5168 54.4664L36.8751 50.0136C37.8893 52.1663 40.0674 53.6712 42.599 53.6712L42.5991 53.6714ZM21.7535 50.6006L29.2282 45.377H35.9566L26.3776 53.3043C25.0931 53.4019 23.8943 53.7935 22.8176 54.4175L21.7535 50.6006ZM23.0135 61.9776C23.0135 59.7021 24.8608 57.8427 27.1238 57.8427C29.4112 57.8427 31.2588 59.7021 31.2588 61.9776C31.2588 64.2651 29.4114 66.1126 27.1238 66.1126C24.8608 66.1126 23.0135 64.2653 23.0135 61.9776ZM28.7635 75.6059L27.3814 70.6756C28.1886 70.651 28.9593 70.5163 29.6934 70.2966L39.6149 74.3579C39.9455 74.8225 40.3245 75.2261 40.74 75.6058L28.7635 75.6059ZM45.4744 73.4286C43.6761 73.4286 42.2077 71.9483 42.2077 70.15C42.2077 68.3391 43.6754 66.8596 45.4744 66.8596C47.2853 66.8596 48.753 68.3399 48.753 70.15C48.753 71.9483 47.2853 73.4286 45.4744 73.4286ZM50.1968 58.8703L48.7656 48.8752C48.8266 48.6183 48.8877 48.3614 48.9249 48.0926L52.5215 50.6005L50.1968 58.8703Z" fill="#D4AF37"/>
<path d="M24.9083 34.403C23.734 34.403 22.7794 35.3449 22.7794 36.5192C22.7794 37.7061 23.7332 38.66 24.9083 38.66C26.0826 38.66 27.0372 37.7061 27.0372 36.5192C27.0372 35.3568 26.0826 34.403 24.9083 34.403Z" fill="#D4AF37"/>
<path d="M35.9555 30.732C37.1298 30.732 38.0844 29.7781 38.0844 28.5912C38.0844 27.4169 37.1305 26.475 35.9555 26.475C34.7931 26.475 33.8265 27.4169 33.8265 28.5912C33.8272 29.7781 34.7938 30.732 35.9555 30.732Z" fill="#D4AF37"/>
<path d="M18.0712 35.5404C19.2335 35.5404 20.1873 34.5865 20.1873 33.3996C20.1873 32.2372 19.2334 31.2834 18.0712 31.2834C16.8969 31.2834 15.9304 32.2373 15.9304 33.3996C15.9423 34.5739 16.9088 35.5404 18.0712 35.5404Z" fill="#D4AF37"/>
<path d="M85.1342 22.1195L82.6263 12.4058C82.5526 12.1243 82.2592 11.9531 81.9658 12.0141L70.4539 14.8766L70.2335 14.0448C70.1598 13.7633 69.8664 13.5921 69.573 13.6531L62.9057 15.2921C61.6949 14.4723 59.0523 12.6376 58.4647 12.0746C57.9264 11.5362 56.8623 11.1572 55.6388 10.7045C54.807 10.3985 53.9507 10.0805 53.1674 9.70147C52.0422 9.13855 51.2707 9.27332 50.8918 9.43264L49.2648 7.65893C49.0444 7.41396 48.7264 7.26727 48.4085 7.25533C48.0659 7.2434 47.7599 7.3529 47.503 7.58592L38.4379 15.8923C38.193 16.1127 38.0589 16.4307 38.0343 16.7487C38.0343 16.9199 38.0589 17.0912 38.12 17.2505L30.1435 22.8167C29.1278 22.7065 28.6386 22.9634 28.5164 22.9999C27.22 21.6052 25.3115 20.9567 23.4277 21.2992C20.9317 21.7393 19.036 23.7952 18.767 26.3024H18.755C17.0297 26.6084 15.6112 27.8684 15.0847 29.5564C13.1763 30.6085 12.124 32.6637 12.3564 34.8171L9.07778 37.1291C8.83281 37.3004 8.75982 37.6429 8.93108 37.8752L10.2156 39.6861L8.44184 40.9348C8.19757 41.1061 8.14845 41.4367 8.30778 41.6809L10.363 44.617C10.4487 44.7392 10.7421 44.9715 11.1218 44.7637L11.5745 44.4331L12.5776 45.8397C11.6967 46.5002 11.2931 47.6381 11.5865 48.7022L12.8345 53.1431L9.56773 55.5899C7.28031 57.3026 6.31377 60.3123 7.1574 63.0526L10.6809 74.4543C11.5737 77.3167 14.2044 79.2623 17.2016 79.2623H20.1623L21.1534 82.7858C21.484 83.9355 22.5481 84.7435 23.7224 84.7435H50.476C51.6749 84.7435 52.727 83.9363 53.045 82.7858L54.0846 79.0911H56.9842C59.9939 79.0911 62.6113 77.158 63.5167 74.283L67.0276 62.8939C67.872 60.1411 66.9055 57.1439 64.6054 55.4313L61.4005 53.0091L62.6113 48.7149C62.9047 47.6263 62.4892 46.464 61.5718 45.8153L62.5383 44.4333L63.003 44.7638C63.4431 44.9597 63.6761 44.7393 63.7491 44.6171L65.7433 41.7547C65.9145 41.5098 65.8654 41.1799 65.6085 41.0086L65.4253 40.8738L73.2789 33.668C73.6951 33.2764 73.9394 32.7506 73.964 32.1877C73.9885 31.6248 73.7927 31.0745 73.4137 30.6709L68.2385 25.0192L72.337 24.8598C72.8754 24.8844 72.8753 24.3341 72.8508 24.1748L72.7041 23.6119L84.6441 22.8047C84.8035 22.7927 84.9502 22.7071 85.0477 22.5723C85.146 22.4502 85.1706 22.2909 85.1334 22.1196L85.1342 22.1195ZM51.2846 13.8742L53.7188 15.5749L49.9145 19.0368L48.4461 16.4924L51.2846 13.8742ZM50.4529 28.5419C49.7067 28.7013 48.9852 28.5174 48.6546 28.0646C48.4096 27.7467 48.4096 27.3305 48.6054 26.8777C49.7067 26.6327 53.9026 25.5932 56.1045 24.2476C56.3495 24.3824 56.6183 24.5901 56.6674 24.8225C56.9243 26.1933 51.5906 28.0893 50.4529 28.5419ZM55.8232 27.7712C55.9699 28.7988 52.3123 30.7438 51.7003 31.0252C51.4925 31.0863 51.2602 31.1228 51.0398 30.7802C50.7464 30.3156 50.7709 29.6789 50.8566 29.5694C51.3093 29.6551 54.3064 28.3214 55.6885 27.282C55.7622 27.4041 55.7986 27.5635 55.8232 27.7712ZM48.2019 25.8628C47.8103 25.7771 47.4677 25.5694 47.3091 25.2998C47.1378 25.0184 47.1259 24.6639 47.26 24.2603C47.5288 23.4405 48.8013 23.2447 49.8169 23.2447C49.866 23.2447 53.7314 21.7398 55.1872 22.3273C55.4441 22.4375 55.5178 22.8656 55.5298 23.3549C53.389 24.6393 48.948 25.6915 48.2019 25.8628ZM46.8437 22.9885C46.7827 22.6951 46.697 22.401 46.6233 22.1202C47.0634 22.1322 47.5772 22.1448 48.018 22.1448C47.9689 22.2185 47.8713 22.3406 47.7857 22.4628C47.3821 22.5968 47.0761 22.7926 46.8437 22.9885ZM48.2749 18.3881L49.1558 19.9049C49.2534 20.0762 49.4373 20.1738 49.6204 20.1738C49.6696 20.1738 49.7306 20.1373 49.7671 20.1246L50.7582 21.8127C50.7337 21.8246 49.3762 22.1552 49.2169 22.1672C49.3516 21.8492 49.3516 21.6043 49.2288 21.3846C49.1677 21.2624 48.96 20.9929 48.4827 21.0301C47.9808 21.0792 46.9778 21.042 46.2808 21.0055C45.9993 20.2229 45.6568 19.4522 45.2651 18.7181C46.0611 18.596 47.0886 18.4737 48.2749 18.3881ZM44.1771 18.963C44.5442 19.6361 44.8622 20.3331 45.131 21.0547C44.7766 21.1523 44.201 21.4464 43.6753 22.2781C43.6261 22.3518 43.5896 22.3518 43.5531 22.3518C43.3454 22.3273 42.9172 22.0213 42.6357 21.2997C42.5747 21.153 42.0854 19.8074 43.8227 19.0852C43.9076 19.0368 44.0304 19.0002 44.1771 18.963ZM41.2285 18.9384C41.2285 18.9384 43.0268 17.336 43.1123 17.2868C43.2716 17.5318 43.4548 17.7641 43.6015 18.0084C43.5405 18.033 43.4548 18.0575 43.3938 18.0821C41.2038 18.9995 41.2776 20.8469 41.6201 21.7032C42.0237 22.7188 42.7333 23.3667 43.4549 23.4284C43.9195 23.4776 44.3357 23.2691 44.5926 22.8536C45.0327 22.1194 45.4609 22.071 45.4735 22.071C45.7304 22.9153 46.2323 25.6309 46.379 25.8633C46.624 26.2669 47.0149 26.5729 47.4676 26.7687C47.2599 27.4783 47.3574 28.1753 47.7856 28.7264C48.2138 29.3013 48.9234 29.6438 49.7305 29.6929C49.6814 30.133 49.7797 30.5984 49.9509 31.002C50.1468 31.4547 50.4528 31.7846 50.8192 31.9685L49.1311 34.3663C48.9599 34.6112 49.0209 34.9538 49.2778 35.125L50.0731 35.6753L49.0946 37.0819L48.4833 36.6538C48.0432 36.3358 47.5048 36.1765 46.9538 36.1765H42.3788C42.9902 35.3447 43.2962 34.2799 43.1004 33.1793C42.9537 32.2374 42.4399 31.381 41.7057 30.8062C42.1584 29.8032 42.317 28.6654 42.1093 27.5522C41.8524 26.06 41.0206 24.7629 39.7845 23.8947C39.3444 23.5767 38.8425 23.3563 38.3407 23.1851L40.0414 19.1723C40.7026 19.3428 41.0205 19.2326 41.2283 18.9385L41.2285 18.9384ZM38.7696 18.1067L39.1241 18.4983L37.2402 22.9512C35.6013 22.6578 33.9498 23.4404 33.2521 23.9542C32.7628 23.5751 32.2126 23.2937 31.6251 23.0979L38.7696 18.1067ZM15.7696 30.4138C15.9163 30.3401 16.0146 30.218 16.0511 30.0713C16.4056 28.6647 17.556 27.6125 18.9507 27.3675C18.9998 27.3556 19.0974 27.3184 19.0974 27.343C19.7214 27.404 19.7944 27.0005 19.807 26.8292C19.8435 24.6391 21.4832 22.7188 23.5993 22.3517C25.2144 22.0703 26.8288 22.7062 27.9055 23.9542C28.1624 24.2602 28.9212 23.9907 29.1163 23.9542C30.4864 23.7092 31.8691 24.1135 32.8968 25.0555C33.1045 25.2386 33.4106 25.2386 33.6183 25.0674C34.2543 24.5171 34.9639 24.1619 35.7345 24.0398C36.9453 23.832 38.1567 24.0889 39.1597 24.7986C40.1627 25.4956 40.8232 26.5477 41.0317 27.7593C41.2275 28.7869 41.0436 29.851 40.5179 30.7318C40.4568 30.854 40.4323 31.0007 40.4688 31.1481C40.5179 31.2948 40.6155 31.405 40.7257 31.4906C41.4107 31.8696 41.888 32.5793 42.0221 33.3872C42.2298 34.5496 41.716 35.6502 40.8113 36.2376C39.943 36.6903 39.0621 36.6777 38.7681 36.6538C38.0711 36.5682 38.083 37.0455 38.0949 37.2167C38.2051 38.6606 37.2021 39.957 35.7829 40.2019C34.6451 40.3977 33.4955 39.8959 32.8833 38.9055C32.7976 38.7707 32.4916 38.4654 32.1126 38.7461C30.8772 38.9665 29.6783 38.2934 29.0543 37.1928C28.7728 36.6671 27.2314 36.1533 27.7087 38.1594C28.259 40.4468 26.5464 42.6979 24.2097 43.1141C22.3867 43.432 20.564 42.5757 19.7322 40.9733C19.3532 40.2391 18.9124 40.5697 18.7538 41.0224C18.4849 41.7812 17.7508 42.3069 16.9555 42.4536C16.3195 42.5638 15.6829 42.4171 15.1571 42.0619C14.6433 41.7074 14.3008 41.1564 14.1906 40.5325C14.0439 39.7253 14.35 38.93 14.9494 38.3306C15.2673 38 15.047 37.609 14.9248 37.5107C14.1661 36.8748 13.6403 35.9813 13.481 35.0028C13.1146 33.0929 14.0566 31.2582 15.7691 30.4138L15.7696 30.4138ZM10.9497 43.5527L9.51851 41.5095L13.2864 38.8669C13.066 39.4543 12.9803 40.0776 13.0905 40.7016C13.1642 41.0807 13.311 41.4358 13.4822 41.7657L10.9497 43.5527ZM17.189 75.1149C16.002 75.1149 14.9871 74.3561 14.632 73.231L11.1085 61.8293C10.766 60.7526 11.1577 59.5784 12.0505 58.9052L14.02 57.4249L18.9747 75.1024H17.1891L17.189 75.1149ZM62.1234 58.7338C63.0289 59.407 63.4079 60.5812 63.0773 61.6699L59.5418 73.0591C59.1993 74.1842 58.1717 74.9557 56.9848 74.9557H55.2476L60.1897 57.3028L62.1234 58.7338ZM61.5605 48.4214L52.0062 82.4919C51.8103 83.177 51.1863 83.6543 50.4767 83.6543L23.7105 83.6536C23.0008 83.6536 22.3768 83.1763 22.181 82.4912L12.6267 48.4207C12.4554 47.7721 12.7004 47.0751 13.2626 46.6954L19.4162 42.4138C20.4192 43.5762 21.875 44.2486 23.4408 44.2486C23.7468 44.2486 24.0648 44.2121 24.3708 44.163C27.0381 43.6983 28.9094 41.3244 28.8364 38.719C29.6928 39.5388 30.9161 39.9669 32.1887 39.8076C33.0815 40.9454 34.5135 41.5083 35.9566 41.2514C37.7183 40.9454 39.0148 39.5023 39.1615 37.777C39.4064 37.7889 39.883 37.9237 41.1192 37.2751H46.9549C47.2855 37.2751 47.5908 37.3727 47.8723 37.5566L60.9375 46.6828C61.4752 47.0744 61.7447 47.7721 61.5608 48.4207L61.5605 48.4214ZM63.1756 43.5522L50.3301 34.5483L51.7121 32.5787L54.2811 34.377C54.538 34.8171 54.8441 35.2214 55.1866 35.5878L61.0588 41.9856C62.0618 42.964 63.6642 42.4874 64.056 42.1323L64.3739 41.8389L63.1756 43.5522ZM67.2859 23.9788L62.8942 19.1833C61.6097 17.7767 59.9581 16.773 58.1479 16.2593L54.8447 15.3419C54.8567 15.1706 54.7956 14.9874 54.6243 14.8772L52.1164 13.1281L52.3614 12.8958C52.6064 12.6754 52.7531 12.3574 52.765 12.0394C52.7769 11.6969 52.6674 11.3909 52.4344 11.134L51.7493 10.3998C51.9817 10.4244 52.2877 10.4854 52.6667 10.6813C53.4985 11.0848 57.3036 12.4796 57.6944 12.8585C58.5142 13.6412 62.3066 16.2108 62.4779 16.3204C62.6126 16.406 62.7593 16.4425 62.918 16.3941L69.3039 14.8281L71.6287 23.7956L67.2859 23.9788ZM72.4365 22.5477L70.7239 15.9294L81.7094 13.201L83.9239 21.7642L72.4365 22.5477Z" fill="#D4AF37"/>
<path d="M24.3459 29.803C26.0339 29.803 27.3921 28.4329 27.3921 26.7567C27.3921 25.0687 26.0339 23.6985 24.3459 23.6985C22.6578 23.6985 21.2996 25.0686 21.2996 26.7567C21.2996 28.4322 22.6578 29.803 24.3459 29.803Z" fill="#D4AF37"/>
<path d="M33.828 37.9752C35.5041 37.9752 36.8742 36.605 36.8742 34.9289C36.8742 33.2408 35.5041 31.8706 33.828 31.8706C32.1399 31.8706 30.7697 33.2408 30.7697 34.9289C30.7816 36.6051 32.1518 37.9752 33.828 37.9752Z" fill="#D4AF37"/>
</svg>
