<svg width="32" height="32" viewBox="0 0 32 32" fill="none" xmlns="http://www.w3.org/2000/svg">
<path d="M16 15.3332C15.1159 15.3332 14.2681 14.982 13.643 14.3569C13.0179 13.7317 12.6667 12.8839 12.6667 11.9998C12.6667 11.1158 13.0179 10.2679 13.643 9.64281C14.2681 9.01769 15.1159 8.6665 16 8.6665C16.8841 8.6665 17.7319 9.01769 18.357 9.64281C18.9821 10.2679 19.3333 11.1158 19.3333 11.9998C19.3333 12.4376 19.2471 12.871 19.0796 13.2754C18.9121 13.6799 18.6665 14.0473 18.357 14.3569C18.0475 14.6664 17.68 14.9119 17.2756 15.0794C16.8712 15.247 16.4377 15.3332 16 15.3332ZM16 2.6665C13.5246 2.6665 11.1507 3.64983 9.40034 5.40017C7.65 7.15051 6.66667 9.52448 6.66667 11.9998C6.66667 18.9998 16 29.3332 16 29.3332C16 29.3332 25.3333 18.9998 25.3333 11.9998C25.3333 9.52448 24.35 7.15051 22.5997 5.40017C20.8493 3.64983 18.4754 2.6665 16 2.6665Z" fill="#D4AF37"/>
</svg>
