<svg width="36" height="36" viewBox="0 0 36 36" fill="none" xmlns="http://www.w3.org/2000/svg">
<path d="M34.7527 19.4217C34.4995 16.5804 34.0826 16.027 33.9251 15.8189C33.563 15.338 32.9836 15.0237 32.3705 14.6939C32.3358 14.6756 32.3059 14.6494 32.283 14.6175C32.2602 14.5857 32.2451 14.5489 32.2389 14.5102C32.2327 14.4715 32.2355 14.4318 32.2473 14.3944C32.259 14.357 32.2793 14.3228 32.3065 14.2945C32.42 14.1794 32.5073 14.041 32.5623 13.8889C32.6173 13.7368 32.6387 13.5747 32.625 13.4135C32.5986 13.1278 32.4657 12.8624 32.2528 12.67C32.0398 12.4777 31.7624 12.3724 31.4754 12.375H30.3785C30.3315 12.3753 30.2846 12.3783 30.2379 12.3841C30.2059 12.3703 30.1727 12.3592 30.1388 12.3511C29.4891 10.9779 28.5996 9.09773 26.756 8.18016C24.0216 6.82031 18.9844 6.75 18 6.75C17.0156 6.75 11.9784 6.82031 9.24751 8.17805C7.40392 9.09562 6.51446 10.9758 5.86477 12.349L5.85915 12.3602C5.82674 12.3648 5.79492 12.3728 5.76423 12.3841C5.71757 12.3783 5.67062 12.3753 5.6236 12.375H4.52462C4.23767 12.3724 3.96021 12.4777 3.74726 12.67C3.53432 12.8624 3.40145 13.1278 3.37501 13.4135C3.36252 13.5743 3.38489 13.7358 3.44059 13.8872C3.49629 14.0385 3.58401 14.176 3.69774 14.2903C3.72495 14.3186 3.74523 14.3527 3.75696 14.3902C3.7687 14.4276 3.77158 14.4672 3.76538 14.506C3.75917 14.5447 3.74405 14.5814 3.72121 14.6133C3.69837 14.6452 3.66843 14.6714 3.63376 14.6897C3.02063 15.0216 2.43845 15.3359 2.07915 15.8147C1.92165 16.0256 1.5054 16.5762 1.25157 19.4175C1.11095 21.0164 1.08985 22.6716 1.20024 23.7375C1.43157 25.9523 1.8654 27.2911 1.88368 27.3466C1.95025 27.5488 2.07279 27.7279 2.23708 27.8632C2.40136 27.9985 2.60065 28.0844 2.81181 28.1109V28.125C2.81181 28.4234 2.93033 28.7095 3.14131 28.9205C3.35229 29.1315 3.63844 29.25 3.93681 29.25H7.87431C8.17267 29.25 8.45882 29.1315 8.6698 28.9205C8.88078 28.7095 8.99931 28.4234 8.99931 28.125C9.6047 28.125 10.0259 28.0167 10.4724 27.9014C11.117 27.7278 11.7759 27.6122 12.4411 27.5562C14.5863 27.3516 16.7196 27.2812 18 27.2812C19.2544 27.2812 21.4819 27.3516 23.6306 27.5562C24.2985 27.6122 24.96 27.7283 25.6071 27.9028C26.0346 28.0125 26.4403 28.1137 27.0021 28.1243C27.0021 28.4227 27.1206 28.7088 27.3316 28.9198C27.5426 29.1308 27.8287 29.2493 28.1271 29.2493H32.0646C32.363 29.2493 32.6491 29.1308 32.8601 28.9198C33.0711 28.7088 33.1896 28.4227 33.1896 28.1243V28.1159C33.4013 28.0898 33.6012 28.0041 33.766 27.8688C33.9308 27.7335 34.0538 27.5541 34.1206 27.3516C34.1388 27.296 34.5727 25.9573 34.804 23.7424C34.9144 22.6758 34.8947 21.0234 34.7527 19.4217ZM7.89821 13.3109C8.46071 12.1155 9.10407 10.7627 10.2495 10.1925C11.9046 9.36844 15.3352 8.99719 18 8.99719C20.6649 8.99719 24.0954 9.36563 25.7506 10.1925C26.8959 10.7627 27.5365 12.1163 28.1018 13.3109L28.1721 13.4634C28.2132 13.5503 28.2314 13.6462 28.2249 13.7421C28.2184 13.838 28.1875 13.9306 28.135 14.0111C28.0825 14.0917 28.0103 14.1574 27.9253 14.2021C27.8402 14.2468 27.7451 14.2689 27.649 14.2664C25.3125 14.2031 20.3906 14.0006 18 14.0006C15.6094 14.0006 10.6875 14.208 8.34751 14.2713C8.25144 14.2738 8.15633 14.2517 8.07125 14.207C7.98617 14.1623 7.91396 14.0966 7.8615 14.0161C7.80904 13.9355 7.77809 13.8429 7.77159 13.747C7.76509 13.6512 7.78327 13.5552 7.82438 13.4684C7.84899 13.4163 7.87501 13.3636 7.89821 13.3109ZM8.73704 18.9098C7.52753 19.0554 6.31028 19.1273 5.09204 19.125C4.34673 19.125 3.57821 18.9141 3.43548 18.2503C3.33774 17.8038 3.34829 17.5528 3.40102 17.3004C3.44532 17.0859 3.51563 16.9298 3.8672 16.875C4.78126 16.7344 5.29243 16.9109 6.78868 17.3517C7.78079 17.6435 8.49657 18.0323 8.90438 18.3403C9.10899 18.4922 9.00001 18.8888 8.73704 18.9098ZM24.3028 24.6755C23.3775 24.7809 21.5269 24.7423 18.0211 24.7423C14.5153 24.7423 12.6654 24.7809 11.7401 24.6755C10.7852 24.5693 9.56813 23.6665 10.3992 22.8621C10.9526 22.332 12.2435 21.9354 13.9627 21.7125C15.6818 21.4896 16.4095 21.375 18.0141 21.375C19.6186 21.375 20.2725 21.4453 22.0655 21.7132C23.8584 21.9811 25.2134 22.3826 25.6289 22.8628C26.3869 23.7234 25.257 24.5637 24.3028 24.6797V24.6755ZM32.5645 18.2496C32.4239 18.9162 31.6505 19.1243 30.908 19.1243C29.6664 19.1246 28.4259 19.0527 27.1927 18.9091C26.9775 18.8887 26.8777 18.5112 27.0956 18.3396C27.4971 18.0239 28.2206 17.6428 29.2113 17.351C30.7076 16.9102 31.5703 16.7337 32.3114 16.8806C32.4921 16.9165 32.5877 17.1105 32.599 17.2322C32.6486 17.5709 32.637 17.9157 32.5645 18.2503V18.2496Z" fill="#D4AF37"/>
</svg>
