<svg width="92" height="92" viewBox="0 0 92 92" fill="none" xmlns="http://www.w3.org/2000/svg">
<path d="M86.25 17.2499C86.241 14.2678 85.0717 11.4062 82.9896 9.27127C80.9075 7.13631 78.0762 5.89561 75.0952 5.8119C72.1142 5.72819 69.2178 6.80806 67.0191 8.8228C64.8205 10.8376 63.4924 13.629 63.3161 16.6059L27.5598 23.756C26.7237 22.0184 25.4632 20.5196 23.8947 19.3981C22.3261 18.2766 20.5002 17.5686 18.5856 17.3395C16.671 17.1104 14.7295 17.3676 12.9407 18.0874C11.1518 18.8072 9.57325 19.9663 8.35089 21.4576C7.12854 22.9489 6.30182 24.7243 5.94717 26.6196C5.59251 28.515 5.72136 30.4691 6.32179 32.3015C6.92223 34.1339 7.97488 35.7853 9.38246 37.1032C10.79 38.4211 12.5071 39.3629 14.375 39.8416V63.6581C12.4131 64.1609 10.6192 65.1738 9.17539 66.5941C7.7316 68.0144 6.68934 69.7915 6.15447 71.7448C5.61959 73.6982 5.61114 75.7583 6.12996 77.716C6.64879 79.6737 7.67642 81.4593 9.10851 82.8914C10.5406 84.3235 12.3262 85.3511 14.2839 85.8699C16.2416 86.3887 18.3017 86.3803 20.2551 85.8454C22.2084 85.3105 23.9855 84.2683 25.4058 82.8245C26.8261 81.3807 27.839 79.5868 28.3417 77.6249H52.1582C52.6362 79.494 53.5777 81.2124 54.8957 82.6213C56.2137 84.0301 57.8657 85.0839 59.6989 85.6851C61.532 86.2864 63.4872 86.4157 65.3836 86.0611C67.28 85.7065 69.0564 84.8795 70.5484 83.6565C72.0405 82.4335 73.2001 80.854 73.92 79.0641C74.64 77.2742 74.8969 75.3317 74.6672 73.4162C74.4375 71.5006 73.7285 69.674 72.6058 68.105C71.483 66.5361 69.9828 65.2756 68.2439 64.4401L75.394 28.6838C78.3208 28.5231 81.0755 27.2495 83.0937 25.1238C85.112 22.998 86.2412 20.1811 86.25 17.2499ZM74.75 11.4999C75.8872 11.4999 76.9989 11.8371 77.9445 12.4689C78.8901 13.1008 79.6271 13.9988 80.0623 15.0495C80.4975 16.1001 80.6114 17.2563 80.3895 18.3717C80.1676 19.487 79.62 20.5116 78.8159 21.3157C78.0117 22.1199 76.9872 22.6675 75.8718 22.8894C74.7564 23.1113 73.6002 22.9974 72.5496 22.5622C71.4989 22.127 70.6009 21.39 69.969 20.4444C69.3372 19.4988 69 18.3871 69 17.2499C69 15.7249 69.6058 14.2624 70.6841 13.184C71.7625 12.1057 73.225 11.4999 74.75 11.4999ZM11.5 28.7499C11.5 27.6126 11.8372 26.5009 12.4691 25.5554C13.1009 24.6098 13.9989 23.8728 15.0496 23.4376C16.1002 23.0024 17.2564 22.8885 18.3718 23.1104C19.4872 23.3322 20.5117 23.8799 21.3159 24.684C22.12 25.4882 22.6677 26.5127 22.8895 27.6281C23.1114 28.7435 22.9975 29.8996 22.5623 30.9503C22.1271 32.001 21.3901 32.899 20.4445 33.5308C19.4989 34.1627 18.3872 34.4999 17.25 34.4999C15.725 34.4999 14.2625 33.8941 13.1841 32.8157C12.1058 31.7374 11.5 30.2749 11.5 28.7499ZM17.25 80.4999C16.1128 80.4999 15.0011 80.1627 14.0555 79.5308C13.1099 78.899 12.3729 78.001 11.9377 76.9503C11.5025 75.8996 11.3886 74.7435 11.6105 73.6281C11.8323 72.5127 12.38 71.4882 13.1841 70.684C13.9883 69.8799 15.0128 69.3322 16.1282 69.1104C17.2436 68.8885 18.3998 69.0024 19.4504 69.4376C20.5011 69.8728 21.3991 70.6098 22.031 71.5554C22.6628 72.5009 23 73.6126 23 74.7499C23 76.2749 22.3942 77.7374 21.3159 78.8157C20.2375 79.8941 18.775 80.4999 17.25 80.4999ZM52.1582 71.8749H28.3417C27.8251 69.8991 26.7916 68.0964 25.3475 66.6523C23.9034 65.2083 22.1008 64.1748 20.125 63.6581V39.8416C22.4734 39.2294 24.5671 37.8882 26.105 36.0109C27.6429 34.1335 28.5458 31.8168 28.6839 29.3939L64.4403 22.2438C65.5661 24.5623 67.4382 26.4354 69.7561 27.5625L62.606 63.316C60.1831 63.4541 57.8664 64.357 55.989 65.8949C54.1117 67.4328 52.7705 69.5265 52.1582 71.8749ZM63.25 80.4999C62.1128 80.4999 61.0011 80.1627 60.0555 79.5308C59.1099 78.899 58.3729 78.001 57.9377 76.9503C57.5025 75.8996 57.3886 74.7435 57.6105 73.6281C57.8323 72.5127 58.38 71.4882 59.1841 70.684C59.9883 69.8799 61.0128 69.3322 62.1282 69.1104C63.2436 68.8885 64.3998 69.0024 65.4504 69.4376C66.5011 69.8728 67.3991 70.6098 68.0309 71.5554C68.6628 72.5009 69 73.6126 69 74.7499C69 76.2749 68.3942 77.7374 67.3159 78.8157C66.2375 79.8941 64.775 80.4999 63.25 80.4999Z" fill="#D4AF37"/>
</svg>
