<svg width="92" height="92" viewBox="0 0 92 92" fill="none" xmlns="http://www.w3.org/2000/svg">
<path d="M64.0933 39.9817C56.2733 32.1617 55.5833 17.8634 55.5833 15.3334H49.8333V23.0001H34.5V15.3334H26.8333C26.8333 11.1167 30.2833 7.66675 34.5 7.66675H61.3333V11.5001C61.3333 11.8067 61.4867 29.2484 68.1567 35.9184L64.0933 39.9817ZM65.1667 7.66675V15.3334H69V7.66675H65.1667ZM57.5 46.0001C49.8333 38.3334 49.8333 26.8334 49.8333 26.8334H34.5V34.5001C34.5 38.3334 34.5 38.3334 30.6667 42.1667C26.8333 46.0001 26.8333 49.8334 26.8333 49.8334V76.6667C26.8333 80.8834 30.2833 84.3334 34.5 84.3334H49.8333C54.05 84.3334 57.5 80.8834 57.5 76.6667V46.0001Z" fill="#D4AF37"/>
</svg>
